<svg height="480" viewBox="0 0 480 480" width="480" xmlns="http://www.w3.org/2000/svg"><path d="m63.999998 352h256.000002c17.6 0 32-14.4 32-32v-256c0-17.6-14.4-32-32-32h-82.4c-5.6 1.28-5.6 12.16-5.6 16v43.84c0 14.88-5.28 24.64-11.04 29.6 35.68 4 73.12 17.44 73.12 78.56 0 17.76-6.08 32-16.48 43.36 1.6 4 7.2 20.64-1.6 42.24 0 0-13.44 4.32-44-16.32-12.64 3.52-26.4 5.28-40 5.28s-27.36-1.76-40-5.28c-30.56 20.64-44 16.32-44 16.32-8.800001-21.6-3.2-38.24-1.6-42.24-10.400001-11.36-16.480001-25.6-16.480001-43.36 0-60.96 37.280001-74.72 72.800001-78.72-4.48-4-8.64-11.04-10.08-21.44-9.12-3.84-32.64-11.04-46.56 13.28 0 0-8.480001 15.36-24.480001 16.48 0 0-15.68.32-1.6-9.6 0 0 10.88-4.96 18.24-23.52 0 0 9.440001-31.04 53.760001-21.44v-27.04c0-3.84 0-14.72-5.76-16h-82.240001c-17.6 0-32 14.4-32 32v256c0 17.6 14.4 32 32 32z" transform="matrix(1.25 0 0 -1.25 0 480)"/></svg>